<?xml version="1.0" standalone="no"?><!DOCTYPE svg PUBLIC "-//W3C//DTD SVG 1.1//EN" "http://www.w3.org/Graphics/SVG/1.1/DTD/svg11.dtd"><svg t="1586333089451" class="icon" viewBox="0 0 1152 1024" version="1.1" xmlns="http://www.w3.org/2000/svg" p-id="2527" xmlns:xlink="http://www.w3.org/1999/xlink" width="225" height="200"><defs><style type="text/css"></style></defs><path d="M654.2025 192c-179.94 0-337.08 109.54-424.54 203.26L55.0025 263.16c-24.26-18.36-60.48 1.2-54.28 29.32L49.0825 512 0.7025 731.54c-6.2 28.12 30.02 47.66 54.28 29.32l174.66-132.1C317.1025 722.46 474.2625 832 654.2025 832 929.1225 832 1152.0025 576 1152.0025 512S929.1225 192 654.2025 192z m174.86 368c-26.5 0-48-21.5-48-48 0-26.52 21.5-48 48-48 26.52 0 48 21.48 48 48 0 26.5-21.5 48-48 48z" p-id="2528" fill="#3d619b"></path></svg>